<?xml version="1.0" encoding="utf-8"?>
<!-- Generator: Adobe Illustrator 16.0.0, SVG Export Plug-In . SVG Version: 6.00 Build 0)  -->
<!DOCTYPE svg PUBLIC "-//W3C//DTD SVG 1.1//EN" "http://www.w3.org/Graphics/SVG/1.1/DTD/svg11.dtd">
<svg version="1.1" id="Layer_1" xmlns="http://www.w3.org/2000/svg" xmlns:xlink="http://www.w3.org/1999/xlink" x="0px" y="0px"
	 width="293.857px" height="250px" viewBox="0 0 293.857 250" enable-background="new 0 0 293.857 250" xml:space="preserve">
<g opacity="0.1">
	<path d="M479.483,295.711c14.753-9.855,20.642-30.979,20.642-45.691s-5.905-35.861-20.707-45.699
		c9.879-14.76,7.241-36.52,1.609-50.09c-3.62-8.776-16.668-30.206-36.424-34.229c3.396-17.367-7.353-36.399-17.729-46.769
		c-6.323-6.339-22.846-18.316-40.044-18.316c-2.285,0-4.537,0.217-6.71,0.636c-3.49-17.36-20.705-30.857-34.268-36.488
		c-5.711-2.373-15.484-4.907-25.765-4.907c-9.646,0-17.883,2.252-24.31,6.532C285.941,5.896,264.801,0,250.08,0
		c-14.817,0-36.15,5.969-45.916,20.963c-6.459-4.505-14.793-6.878-24.59-6.878c-9.919,0-19.428,2.462-25.01,4.762
		c-8.254,3.395-25.621,13.997-32.241,29.876c-0.934,2.26-1.625,4.561-2.076,6.87c-2.285-0.475-4.649-0.716-7.079-0.716
		c-17.166,0-33.705,11.978-40.043,18.309c-4.947,4.947-12.05,14.608-15.75,25.573c-2.558,7.537-3.153,14.737-1.866,21.277
		c-19.861,3.925-32.949,25.475-36.561,34.251c-3.435,8.261-8.197,28.082-1.617,43.985c0.885,2.148,1.963,4.159,3.202,6.018
		c-14.769,9.854-20.657,30.978-20.657,45.689c0,14.713,5.904,35.861,20.698,45.699c-9.871,14.754-7.232,36.521-1.601,50.107
		c3.636,8.768,16.7,30.182,36.424,34.203c-3.395,17.385,7.353,36.408,17.729,46.777c6.331,6.34,22.845,18.316,40.028,18.316
		c2.3,0,4.553-0.217,6.725-0.643c3.491,17.367,20.714,30.865,34.269,36.496c5.727,2.373,15.5,4.906,25.773,4.906
		c9.645,0,17.873-2.252,24.301-6.531C214.059,494.104,235.198,500,249.92,500c14.576,0,35.538-5.896,45.216-20.699
		c6.476,4.4,14.81,6.717,24.606,6.717c10.232,0,19.99-2.516,25.71-4.865c8.253-3.395,25.612-13.996,32.224-29.877
		c0.935-2.26,1.625-4.553,2.076-6.861c2.285,0.467,4.649,0.709,7.079,0.709c17.165,0,33.704-11.979,40.044-18.301
		c6.322-6.307,18.275-22.781,18.292-39.988c0.016-2.357-0.209-4.656-0.66-6.877c19.853-3.934,32.933-25.469,36.554-34.244
		c3.426-8.262,8.188-28.082,1.608-43.986C481.784,299.58,480.722,297.576,479.483,295.711z M457.378,300.609
		c3.926,1.625,6.516,4.23,8.173,8.205c4.055,9.822,0.676,24.301-1.625,29.811c-3.362,8.166-14.367,23.426-25.741,23.426
		c-1.914,0-3.78-0.395-5.76-1.215c-0.981-0.402-2.011-0.611-3.024-0.66c-2.815,4.57-5.824,9.002-8.961,13.33
		c0.434,0.932,1.029,1.818,1.785,2.582c3.025,3.016,4.424,6.418,4.408,10.73c0,10.627-8.655,22.701-12.854,26.883
		c-4.215,4.207-16.346,12.887-26.947,12.887c-4.296,0-7.706-1.398-10.715-4.408c-0.757-0.748-1.641-1.326-2.591-1.744
		c-4.392,3.209-8.913,6.266-13.562,9.121c0.057,0.998,0.242,2.004,0.644,2.969c1.625,3.949,1.609,7.643-0.048,11.623
		c-4.078,9.807-16.684,17.609-22.153,19.861c-3.138,1.295-10.603,3.475-18.663,3.475c-15.228,0-18.364-7.602-19.395-10.096
		c-0.394-0.949-1.014-1.752-1.705-2.477c-5.365,1.271-10.787,2.389-16.289,3.242c-0.322,0.934-0.499,1.922-0.499,2.943
		c0,19.17-31.613,20.369-31.935,20.369c-6.468,0-32.579-3.668-32.579-20.617c0-0.982-0.21-1.932-0.515-2.832
		c-5.422-0.861-10.764-1.963-16.04-3.227c-0.612,0.717-1.134,1.529-1.513,2.445c-1.029,2.494-4.183,10.072-19.354,10.072
		c-8.085,0-15.542-2.197-18.662-3.492c-5.978-2.484-28.719-15.895-22.227-31.557c0.394-0.941,0.587-1.922,0.651-2.904
		c-4.562-2.814-8.993-5.816-13.313-8.953c-0.892,0.434-1.753,0.99-2.493,1.73c-3.017,3.016-6.419,4.416-10.723,4.416
		c-10.61,0-22.717-8.68-26.924-12.887c-4.577-4.57-20.457-25.637-8.471-37.654c0.748-0.748,1.319-1.602,1.753-2.51
		c-3.121-4.305-6.105-8.713-8.905-13.258c-0.989,0.064-1.995,0.266-2.952,0.668c-1.979,0.812-3.853,1.207-5.76,1.207
		c-11.358,0-22.419-15.26-25.806-23.426c-2.478-5.975-9.074-31.5,6.597-38.008c0.949-0.395,1.77-0.99,2.509-1.656
		c-1.263-5.254-2.349-10.562-3.209-15.953c-0.925-0.312-1.906-0.506-2.92-0.506c-16.973,0-20.657-26.119-20.657-32.588
		c0-6.475,3.684-32.609,20.657-32.609c1.03,0,2.011-0.227,2.944-0.556c0.845-5.341,1.931-10.61,3.17-15.815
		c-0.74-0.65-1.593-1.205-2.55-1.608c-3.934-1.624-6.523-4.231-8.173-8.205c-4.062-9.821-0.676-24.301,1.617-29.812
		c3.363-8.164,14.367-23.424,25.741-23.424c1.899,0,3.781,0.394,5.744,1.206c0.981,0.402,1.995,0.611,3.009,0.659
		c2.815-4.576,5.824-9.018,8.977-13.345c-0.45-0.925-1.021-1.802-1.778-2.558c-1.729-1.722-6.974-6.982-2.839-19.218
		c2.872-8.495,8.639-15.742,11.294-18.397c4.215-4.207,16.346-12.886,26.948-12.886c4.296,0,7.698,1.399,10.715,4.408
		c0.74,0.74,1.617,1.311,2.558,1.729c4.408-3.21,8.93-6.274,13.596-9.138c-0.064-0.989-0.242-1.979-0.645-2.937
		c-1.625-3.949-1.608-7.642,0.049-11.616c4.086-9.805,16.699-17.616,22.178-19.869c4.07-1.681,11.205-3.371,17.955-3.371
		c14.969,0,18.146,7.707,19.192,10.24c0.378,0.925,0.941,1.73,1.553,2.454c5.478-1.328,11.028-2.47,16.659-3.363
		c0.281-0.893,0.491-1.817,0.491-2.799c0-16.949,26.144-20.617,32.61-20.617c6.468,0,32.579,3.668,32.579,20.617
		c0,0.982,0.209,1.931,0.515,2.839c5.406,0.853,10.723,1.955,15.976,3.218c0.628-0.731,1.19-1.521,1.576-2.445
		c1.03-2.493,4.184-10.071,19.363-10.071c8.084,0,15.533,2.196,18.654,3.491c5.984,2.485,28.718,15.896,22.233,31.558
		c-0.394,0.941-0.611,1.93-0.668,2.919c4.546,2.808,8.953,5.792,13.266,8.929c0.917-0.442,1.785-0.965,2.542-1.722
		c3.009-3.016,6.419-4.416,10.715-4.416c10.635,0,22.732,8.68,26.932,12.887c4.585,4.569,20.448,25.645,8.462,37.63
		c-0.756,0.765-1.238,1.706-1.689,2.655c3.089,4.255,6.033,8.615,8.801,13.104c1.014-0.064,2.043-0.225,3.009-0.636
		c1.979-0.812,3.861-1.206,5.759-1.206c11.391,0,22.428,15.252,25.806,23.424c2.462,5.977,9.058,31.502-6.596,38.009
		c-0.965,0.401-1.786,1.013-2.525,1.698c1.254,5.244,2.333,10.545,3.185,15.927c0.95,0.321,1.947,0.491,2.977,0.491
		c16.974,0,20.642,26.119,20.642,32.586c0,6.477-3.668,32.611-20.642,32.611c-1.046,0-2.043,0.201-2.992,0.539
		c-0.853,5.334-1.931,10.594-3.169,15.781C455.544,299.627,456.396,300.207,457.378,300.609z"/>
	<path d="M440.485,243.617l-39.11-0.17c-0.756-15.533-3.83-30.431-8.914-44.404l36.345-14.994c3.684-1.52,5.437-5.734,3.925-9.41
		c-1.528-3.677-5.743-5.446-9.412-3.918l-36.439,15.026c-6.436-13.49-14.785-25.862-24.728-36.802l28.154-27.921
		c2.832-2.799,2.848-7.369,0.048-10.192c-2.799-2.824-7.368-2.848-10.199-0.041l-28.187,27.954
		c-11.117-10.128-23.698-18.599-37.438-25.098l15.269-36.729c1.528-3.676-0.209-7.9-3.894-9.428
		c-3.668-1.52-7.883,0.217-9.411,3.893l-15.284,36.738c-13.675-4.923-28.203-7.907-43.358-8.688l0.178-39.859
		c0.016-3.982-3.202-7.224-7.176-7.24c-0.017,0-0.032,0-0.032,0c-3.975,0-7.191,3.201-7.207,7.175l-0.178,39.851
		c-15.461,0.667-30.31,3.628-44.242,8.6l-15.155-36.762c-1.528-3.676-5.743-5.43-9.411-3.917c-3.685,1.521-5.438,5.736-3.926,9.412
		l15.154,36.746c-13.498,6.339-25.902,14.576-36.89,24.422l-27.946-28.195c-2.815-2.824-7.368-2.84-10.2-0.048
		c-2.831,2.807-2.847,7.368-0.048,10.2l27.914,28.155c-10.232,11.068-18.808,23.642-25.404,37.373l-36.375-15.132
		c-3.668-1.527-7.883,0.21-9.412,3.887c-1.529,3.676,0.209,7.898,3.877,9.428l36.295,15.09c-5.036,13.707-8.125,28.308-8.993,43.535
		l-39.095-0.168c0,0-0.016,0-0.032,0c-3.958,0-7.191,3.201-7.208,7.175c-0.017,3.981,3.202,7.224,7.175,7.239l38.998,0.17
		c0.595,15.598,3.523,30.574,8.495,44.637l-35.829,14.768c-3.668,1.521-5.422,5.736-3.91,9.412c1.143,2.783,3.829,4.465,6.661,4.465
		c0.917,0,1.85-0.176,2.751-0.547l35.765-14.754c6.354,13.668,14.672,26.209,24.615,37.311l-27.367,27.133
		c-2.832,2.799-2.847,7.359-0.048,10.191c1.416,1.416,3.266,2.131,5.116,2.131c1.834,0,3.668-0.699,5.083-2.09l27.318-27.094
		c11.165,10.336,23.875,18.984,37.759,25.613l-14.704,35.354c-1.529,3.676,0.209,7.898,3.877,9.428
		c0.916,0.369,1.85,0.547,2.768,0.547c2.831,0,5.502-1.666,6.66-4.439l14.688-35.314c13.837,5.043,28.574,8.1,43.938,8.889
		l-0.177,38.217c-0.017,3.982,3.201,7.225,7.176,7.24c0.016,0,0.032,0,0.032,0c3.974,0,7.19-3.201,7.207-7.176l0.177-38.217
		c15.671-0.684,30.713-3.725,44.822-8.824l14.593,35.361c1.157,2.783,3.845,4.465,6.676,4.465c0.901,0,1.834-0.178,2.736-0.547
		c3.684-1.521,5.437-5.736,3.925-9.412l-14.624-35.41c13.643-6.467,26.127-14.881,37.18-24.922l27.108,27.359
		c1.416,1.424,3.266,2.131,5.132,2.131c1.835,0,3.668-0.691,5.068-2.084c2.831-2.807,2.848-7.367,0.049-10.199l-27.157-27.396
		c10.216-11.223,18.759-23.949,25.274-37.857l35.732,14.865c0.9,0.379,1.85,0.555,2.767,0.555c2.832,0,5.502-1.672,6.66-4.439
		c1.529-3.676-0.209-7.898-3.893-9.428l-35.797-14.881c4.923-13.789,7.867-28.461,8.575-43.744l39.03,0.168c0,0,0.017,0,0.032,0
		c3.957,0,7.191-3.209,7.208-7.176C447.677,246.875,444.459,243.633,440.485,243.617z M249.969,384.068
		c-73.443,0-133.212-59.777-133.212-133.253c0-73.475,59.769-133.251,133.212-133.251c73.475,0,133.242,59.776,133.242,133.251
		C383.211,324.291,323.443,384.068,249.969,384.068z"/>
</g>
</svg>
